# xmcd CD database file
#
# Track frame offsets:
#	150
#	22827
#	44050
#	62577
#	87939
#	105954
#	125897
#	148899
#	174059
#	195404
#
# Disc length: 2927 seconds
#
# Revision: 0
# Processed by: cddbd v1.5.1PL0 Copyright (c) Steve Scherf et al.
# Submitted via: CDex 1.51
#
DISCID=800b6d0a
DTITLE=平松八千代 - トラヴェリング ソウル
DYEAR=2004
DGENRE=JPop
TTITLE0=You Are Like The Sunshine
TTITLE1=kiss
TTITLE2=Back To Me
TTITLE3=Love Is Blue
TTITLE4=滲んだ月
TTITLE5=Rescue Me
TTITLE6=Real Love
TTITLE7=抱きしめたいのに
TTITLE8=Journey
TTITLE9=Turquoise Blue Sky
EXTD=YEAR: 2004
EXTT0=
EXTT1=
EXTT2=
EXTT3=
EXTT4=
EXTT5=
EXTT6=
EXTT7=
EXTT8=
EXTT9=
PLAYORDER=
